<svg xmlns="http://www.w3.org/2000/svg" viewBox="0 0 50 50"><defs><style>.a{fill:#45d;}</style></defs><path class="a" d="M5,0H45a5,5,0,0,1,5,5V45a5,5,0,0,1-5,5H5a5,5,0,0,1-5-5V5A5,5,0,0,1,5,0Z"/><path d="M41.7,16.5a4.439,4.439,0,0,0-3.125-3.027c-3.32-.879-23.34-.977-27.148,0A4.439,4.439,0,0,0,8.3,16.5c-.879,3.711-.977,13.184,0,16.992a4.439,4.439,0,0,0,3.125,3.027c3.516.977,23.535.977,27.148,0A4.439,4.439,0,0,0,41.7,33.5c.879-3.516.879-13.379,0-16.992"/><path class="a" d="M21.484,19.824V30.176L30.566,25"/></svg>