<svg xmlns="http://www.w3.org/2000/svg" viewBox="0 0 327.105 270"><defs><style>.a{fill:#f0f2ff;}.b,.e{fill:none;}.b,.c,.e,.g{stroke:#4550e5;stroke-linejoin:round;stroke-width:3.717px;}.b,.c,.g{stroke-linecap:round;}.c,.f{fill:#d6daff;}.d,.g{fill:#fff;}</style></defs><g transform="translate(-22.303 -50.86)"><path class="a" d="M334.539,199.534A148.684,148.684,0,1,0,50.4,260.866h270.9a148.237,148.237,0,0,0,13.233-61.332Z"/><line class="b" x2="289.934" transform="translate(40.888 260.866)"/><line class="b" x2="9.293" transform="translate(24.161 260.866)"/><line class="b" x2="9.293" transform="translate(338.257 260.866)"/><path class="c" d="M238.378,162.1l13.344,24.459a18.585,18.585,0,0,1,2.267,8.921v44.605L257,243.136a7.434,7.434,0,0,1,2.193,5.241V260.9H238.378Z"/><line class="b" x2="13.01" transform="translate(243.582 232.356)"/><path class="c" d="M103.075,162.1,89.731,186.561a18.586,18.586,0,0,0-2.267,8.921v44.605l-3.048,3.048a7.434,7.434,0,0,0-2.156,5.241V260.9h20.816Z"/><path class="d" d="M293.651,83.077a5.687,5.687,0,0,0-2.23.446,10.371,10.371,0,0,0-20.518,0,5.687,5.687,0,0,0-2.23-.446,6.245,6.245,0,1,0,0,12.489h24.979a6.245,6.245,0,1,0,0-12.489Z"/><path class="e" d="M293.651,83.077a5.687,5.687,0,0,0-2.23.446,10.371,10.371,0,0,0-20.518,0,5.687,5.687,0,0,0-2.23-.446,6.245,6.245,0,1,0,0,12.489h24.979a6.245,6.245,0,1,0,0-12.489Z"/><path class="d" d="M196.746,63.228v65.049H144.707V63.228H97.871V232.356l2.6,2.6v10.408l-2.6,2.6v13.01h145.71V245.366l-2.6-2.6v-7.806l2.6-2.6V63.228Z"/><path class="e" d="M293.651,83.077a5.687,5.687,0,0,0-2.23.446,10.371,10.371,0,0,0-20.518,0,5.687,5.687,0,0,0-2.23-.446,6.245,6.245,0,1,0,0,12.489h24.979a6.245,6.245,0,1,0,0-12.489Z"/><path class="b" d="M196.746,63.228v65.049H144.707V63.228H97.871V232.356l2.6,2.6v10.408l-2.6,2.6v13.01h145.71V245.366l-2.6-2.6v-7.806l2.6-2.6V63.228Z"/><rect class="c" width="145.71" height="15.612" transform="translate(97.871 195.929)"/><path class="c" d="M246.37,128.277H95.046a1.3,1.3,0,0,0-1.078,2.007h0a23.121,23.121,0,0,1,3.717,12.787v6.022H243.4v-6.022a23.083,23.083,0,0,1,3.717-12.787h0a1.3,1.3,0,0,0-.743-2.007Z"/><path class="c" d="M170.727,221.948h0a20.7,20.7,0,0,0-13.01,19.217v19.812h26.02V241.166a20.779,20.779,0,0,0-13.01-19.217Z"/><path class="c" d="M121.289,227.152h0a21.187,21.187,0,0,0-10.408,19.217v14.608H131.7V246.37a21.262,21.262,0,0,0-10.408-19.217Z"/><path class="c" d="M121.289,162.1h0a21.188,21.188,0,0,0-10.408,19.217v14.608H131.7V181.32A21.262,21.262,0,0,0,121.289,162.1Z"/><path class="c" d="M220.164,162.1h0a21.188,21.188,0,0,0-10.408,19.217v14.608h20.7V181.32a21.262,21.262,0,0,0-10.3-19.217Z"/><path class="c" d="M220.164,227.152h0a21.188,21.188,0,0,0-10.408,19.217v14.608h20.7V246.37a21.262,21.262,0,0,0-10.3-19.217Z"/><line class="b" y2="33.826" transform="translate(144.707 195.929)"/><line class="b" y2="33.826" transform="translate(196.746 195.929)"/><line class="b" y2="13.01" transform="translate(144.707 149.093)"/><line class="b" y2="13.01" transform="translate(196.746 149.093)"/><path class="c" d="M170.727,156.9h0a20.816,20.816,0,0,0-20.816,20.816v18.214h41.632V177.715A20.816,20.816,0,0,0,170.727,156.9Z"/><circle class="f" cx="13.01" cy="13.01" r="13.01" transform="translate(157.717 164.705)"/><path class="d" d="M180.019,168.682a12.824,12.824,0,0,0-9.293-3.977,12.973,12.973,0,0,0-3.717,25.462Z"/><circle class="b" cx="13.01" cy="13.01" r="13.01" transform="translate(157.717 164.705)"/><line class="b" y2="5.204" transform="translate(144.707 237.56)"/><line class="b" y2="5.204" transform="translate(196.746 237.56)"/><line class="b" y1="15.612" transform="translate(121.289 195.929)"/><line class="b" y1="7.806" transform="translate(108.279 203.734)"/><line class="b" y1="7.806" transform="translate(134.299 203.734)"/><line class="b" y1="15.612" transform="translate(170.727 195.929)"/><line class="b" y1="7.806" transform="translate(157.717 203.734)"/><line class="b" y1="7.806" transform="translate(183.736 203.734)"/><line class="b" y1="15.612" transform="translate(220.164 195.929)"/><line class="b" y1="7.806" transform="translate(207.154 203.734)"/><line class="b" y1="7.806" transform="translate(233.174 203.734)"/><path class="g" d="M118.315,133.11l-2.23-2.23-2.23,2.23a10.11,10.11,0,0,0-2.974,7.211v8.772h10.408v-8.772a10.259,10.259,0,0,0-2.974-7.211Z"/><path class="g" d="M145.636,133.11l-2.23-2.23-2.23,2.23a10.11,10.11,0,0,0-2.974,7.211v8.772h10.482v-8.772a10.259,10.259,0,0,0-3.048-7.211Z"/><path class="g" d="M172.957,133.11l-2.23-2.23-2.23,2.23a10.111,10.111,0,0,0-2.974,7.211v8.772h10.408v-8.772A10.259,10.259,0,0,0,172.957,133.11Z"/><path class="g" d="M200.278,133.11l-2.23-2.23-2.23,2.23a10.111,10.111,0,0,0-2.974,7.211v8.772h10.408v-8.772A10.259,10.259,0,0,0,200.278,133.11Z"/><path class="g" d="M223.026,133.11l2.23-2.23,2.23,2.23a10.259,10.259,0,0,1,2.974,7.211v8.772H220.053v-8.772a10.11,10.11,0,0,1,2.974-7.211Z"/><line class="b" y2="5.204" transform="translate(131.697 128.277)"/><line class="b" y2="5.204" transform="translate(105.677 128.277)"/><line class="b" y2="5.204" transform="translate(157.717 128.277)"/><line class="b" y2="5.204" transform="translate(183.736 128.277)"/><line class="b" y2="5.204" transform="translate(209.756 128.277)"/><line class="b" y2="5.204" transform="translate(235.776 128.277)"/><path class="f" d="M169.277,242.764h2.974a3.717,3.717,0,0,1,3.717,3.717v14.5H165.56v-14.5A3.717,3.717,0,0,1,169.277,242.764Z"/><path class="d" d="M172.251,242.764h-2.974a3.717,3.717,0,0,0-3.717,3.717v14.5h.743l9.441-15.649A3.717,3.717,0,0,0,172.251,242.764Z"/><path class="b" d="M169.277,242.764h2.974a3.717,3.717,0,0,1,3.717,3.717v14.5H165.56v-14.5A3.717,3.717,0,0,1,169.277,242.764Z"/><path class="f" d="M110.881,84.044h0a17.768,17.768,0,0,0-5.2,12.6v31.67h10.408V96.645A17.954,17.954,0,0,0,110.881,84.044Z"/><path class="d" d="M116.085,101.514V96.645a17.954,17.954,0,0,0-5.2-12.564h0a17.768,17.768,0,0,0-5.2,12.564v22.3Z"/><path class="b" d="M110.881,84.044h0a17.768,17.768,0,0,0-5.2,12.6v31.67h10.408V96.645A17.954,17.954,0,0,0,110.881,84.044Z"/><path class="f" d="M131.7,84.044h0a17.768,17.768,0,0,0-5.315,12.6v31.67h10.408V96.645A17.954,17.954,0,0,0,131.7,84.044Z"/><path class="d" d="M136.9,101.514V96.645a17.954,17.954,0,0,0-5.2-12.564h0a17.768,17.768,0,0,0-5.315,12.564v22.3Z"/><path class="b" d="M131.7,84.044h0a17.768,17.768,0,0,0-5.315,12.6v31.67h10.408V96.645A17.954,17.954,0,0,0,131.7,84.044Z"/><path class="f" d="M209.756,84.044h0a17.768,17.768,0,0,0-5.315,12.6v31.67h10.408V96.645a17.954,17.954,0,0,0-5.092-12.6Z"/><path class="d" d="M214.96,101.514V96.645a17.954,17.954,0,0,0-5.2-12.564h0a17.768,17.768,0,0,0-5.315,12.564v22.3Z"/><path class="b" d="M209.756,84.044h0a17.768,17.768,0,0,0-5.315,12.6v31.67h10.408V96.645a17.954,17.954,0,0,0-5.092-12.6Z"/><path class="f" d="M230.46,84.044h0a17.768,17.768,0,0,0-5.092,12.6v31.67h10.408V96.645A17.954,17.954,0,0,0,230.46,84.044Z"/><path class="d" d="M235.776,101.514V96.645a17.954,17.954,0,0,0-5.315-12.6h0a17.768,17.768,0,0,0-5.092,12.6v22.3Z"/><path class="b" d="M230.46,84.044h0a17.768,17.768,0,0,0-5.092,12.6v31.67h10.408V96.645A17.954,17.954,0,0,0,230.46,84.044Z"/><line class="b" x2="52.039" transform="translate(95.269 73.636)"/><line class="b" x2="52.039" transform="translate(95.269 63.228)"/><line class="b" x2="52.039" transform="translate(194.144 73.636)"/><line class="b" x2="52.039" transform="translate(194.144 63.228)"/><line class="b" x2="150.914" transform="translate(95.269 149.093)"/><line class="b" x2="171.73" transform="translate(84.861 195.929)"/><line class="b" x1="13.01" transform="translate(84.861 232.356)"/><rect class="c" width="46.836" height="10.408" transform="translate(97.871 63.228)"/><rect class="c" width="46.836" height="10.408" transform="translate(196.746 63.228)"/><line class="b" y2="26.02" transform="translate(170.727 164.705)"/><line class="b" x2="26.02" transform="translate(157.717 177.715)"/><rect class="f" width="20.816" height="15.612" transform="translate(110.881 180.317)"/><path class="d" d="M110.881,180.317v15.612h7.806l9.367-15.612Z"/><rect class="b" width="20.816" height="15.612" transform="translate(110.881 180.317)"/><rect class="f" width="20.816" height="15.612" transform="translate(209.756 180.317)"/><path class="d" d="M209.756,180.317v15.612h7.806l9.367-15.612Z"/><rect class="b" width="20.816" height="15.612" transform="translate(209.756 180.317)"/><rect class="f" width="20.816" height="15.612" transform="translate(110.881 245.366)"/><path class="d" d="M110.881,245.366v15.612h7.806l9.367-15.612Z"/><rect class="b" width="20.816" height="15.612" transform="translate(110.881 245.366)"/><rect class="f" width="20.816" height="15.612" transform="translate(209.756 245.366)"/><path class="d" d="M209.756,245.366v15.612h7.806l9.367-15.612Z"/><rect class="b" width="20.816" height="15.612" transform="translate(209.756 245.366)"/><path class="c" d="M293.651,231.464c0,8.624-3.085,16.1-6.542,16.1s-6.542-7.434-6.542-16.1,6.542-31.335,6.542-31.335S293.651,222.8,293.651,231.464Z"/><line class="b" y2="13.419" transform="translate(287.221 247.559)"/><path class="b" d="M63.934,208.158a10.185,10.185,0,0,1-20.333,0"/><path class="g" d="M47.393,204.441H39.959a1.97,1.97,0,0,1-1.189-.446,1.561,1.561,0,0,0,0,.595l.743,5.539a1.9,1.9,0,0,0,1.859,1.6h4.8a1.821,1.821,0,0,0,1.821-1.6l.743-5.538a1.561,1.561,0,0,0,0-.595,1.784,1.784,0,0,1-1.338.446Z"/><path class="c" d="M43.6,196.412a5.65,5.65,0,0,0-5.613,5.65c0,1.636.818,2.3,1.859,2.3h7.434c1.041,0,1.859-.669,1.859-2.3a5.65,5.65,0,0,0-5.54-5.65Z"/><path class="g" d="M67.726,204.441H60.291a1.784,1.784,0,0,1-1.152-.446,2.9,2.9,0,0,0,0,.595l.743,5.538a1.9,1.9,0,0,0,1.859,1.6h4.8a1.821,1.821,0,0,0,1.821-1.6l.595-5.687a2.9,2.9,0,0,0,0-.595,1.784,1.784,0,0,1-1.227.595Z"/><path class="c" d="M63.934,196.412a5.65,5.65,0,0,0-5.613,5.65c0,1.636.818,2.3,1.859,2.3h7.434c1.041,0,1.859-.669,1.859-2.3a5.65,5.65,0,0,0-5.54-5.65Z"/><line class="b" y2="42.71" transform="translate(53.787 218.268)"/><ellipse class="a" cx="50.181" cy="5.576" rx="50.181" ry="5.576" transform="translate(72.372 309.709)"/><path class="g" d="M141.993,255.142v13.084H79.843a3.717,3.717,0,0,0-3.717,3.717V302.5a3.717,3.717,0,0,0,3.16,3.717l8.884,1.375h75.086a3.717,3.717,0,0,0,3.717-3.717V275.066a55.753,55.753,0,0,0-.558-7.88l-1.338-9.256a7.434,7.434,0,0,0-7.434-6.393H145.71A3.717,3.717,0,0,0,141.993,255.142Z"/><path class="c" d="M103.447,307.553a6.8,6.8,0,1,1-6.8-6.8,6.8,6.8,0,0,1,6.8,6.8Z"/><path class="c" d="M152.141,307.553a6.8,6.8,0,1,1-6.8-6.8A6.8,6.8,0,0,1,152.141,307.553Z"/><rect class="c" width="13.01" height="24.644" transform="translate(112.48 282.909)"/><rect class="f" width="20.518" height="11.3" transform="translate(84.453 282.909)"/><rect class="b" width="20.518" height="11.3" transform="translate(84.453 282.909)"/><rect class="f" width="13.01" height="11.3" transform="translate(132.849 282.909)"/><rect class="b" width="13.01" height="11.3" transform="translate(132.849 282.909)"/><rect class="f" width="13.01" height="11.3" transform="translate(153.962 282.909)"/><rect class="b" width="13.01" height="11.3" transform="translate(153.962 282.909)"/><path class="f" d="M153.739,268.486h12.824l-1.3-9.218H153.739a3.717,3.717,0,0,0-3.717,3.717v1.859A3.717,3.717,0,0,0,153.739,268.486Z"/><path class="b" d="M153.739,268.486h12.824l-1.3-9.218H153.739a3.717,3.717,0,0,0-3.717,3.717v1.859A3.717,3.717,0,0,0,153.739,268.486Z"/><path class="b" d="M84.9,260.978h57.095v7.248H81.182V264.7A3.717,3.717,0,0,1,84.9,260.978Z"/><rect class="b" width="8.661" height="7.248" transform="translate(91.552 260.978)"/><rect class="b" width="8.661" height="7.248" transform="translate(108.428 260.978)"/><rect class="b" width="8.661" height="7.248" transform="translate(125.489 260.978)"/><rect class="c" width="13.01" height="11.3" transform="translate(112.48 282.909)"/><line class="b" x2="74.156" transform="translate(85.159 275.586)"/></g></svg>